/* XPM */
static char * real_collectible_xpm[] = {
"50 50 327 2",
"  	c #26AF15",
". 	c #26B015",
"+ 	c #229714",
"@ 	c #1F7E13",
"# 	c #218B13",
"$ 	c #26AD15",
"% 	c #218E14",
"& 	c #239E14",
"* 	c #239914",
"= 	c #24A014",
"- 	c #26B115",
"; 	c #229614",
"> 	c #239A15",
", 	c #249B15",
"' 	c #219014",
") 	c #26AB15",
"! 	c #1E7813",
"~ 	c #25A315",
"{ 	c #25A115",
"] 	c #218E13",
"^ 	c #25A515",
"/ 	c #25A516",
"( 	c #26AC15",
"_ 	c #25A915",
": 	c #249E14",
"< 	c #24A314",
"[ 	c #26AE15",
"} 	c #239714",
"| 	c #239515",
"1 	c #249F14",
"2 	c #FECD12",
"3 	c #FFCE0F",
"4 	c #FCDA35",
"5 	c #FEED8C",
"6 	c #FFF2A7",
"7 	c #FDED9C",
"8 	c #218D14",
"9 	c #208813",
"0 	c #1F8213",
"a 	c #25AB15",
"b 	c #24A214",
"c 	c #208713",
"d 	c #27B316",
"e 	c #249E15",
"f 	c #239C14",
"g 	c #239815",
"h 	c #229314",
"i 	c #1E7A13",
"j 	c #208413",
"k 	c #25A815",
"l 	c #26A816",
"m 	c #218C13",
"n 	c #229414",
"o 	c #218914",
"p 	c #FFD00F",
"q 	c #FFF2A8",
"r 	c #FDEEA3",
"s 	c #FEF1A2",
"t 	c #218C14",
"u 	c #218F14",
"v 	c #229014",
"w 	c #27AB17",
"x 	c #208314",
"y 	c #229214",
"z 	c #228F14",
"A 	c #239614",
"B 	c #25A615",
"C 	c #218F13",
"D 	c #25A415",
"E 	c #1E7913",
"F 	c #FDDC44",
"G 	c #FEF195",
"H 	c #25AC15",
"I 	c #208513",
"J 	c #249F15",
"K 	c #239B14",
"L 	c #26AC16",
"M 	c #218A13",
"N 	c #FFD013",
"O 	c #FDE14A",
"P 	c #FFF0A7",
"Q 	c #24A114",
"R 	c #249A15",
"S 	c #1F8113",
"T 	c #239A14",
"U 	c #229114",
"V 	c #25AA15",
"W 	c #239D14",
"X 	c #D19C1B",
"Y 	c #F4C212",
"Z 	c #FCE153",
"` 	c #FCE673",
" .	c #1F7C13",
"..	c #239814",
"+.	c #249C15",
"@.	c #239415",
"#.	c #208614",
"$.	c #249D15",
"%.	c #25A015",
"&.	c #218D13",
"*.	c #BC8E1C",
"=.	c #D79F23",
"-.	c #FCE55D",
";.	c #FDD426",
">.	c #239514",
",.	c #25A715",
"'.	c #27AE16",
").	c #239615",
"!.	c #ECBB12",
"~.	c #DEA821",
"{.	c #DCA524",
"].	c #F9C714",
"^.	c #FED21B",
"/.	c #FCE263",
"(.	c #E6D281",
"_.	c #EDDA8A",
":.	c #FCE46B",
"<.	c #1F7F13",
"[.	c #218A14",
"}.	c #F7C80E",
"|.	c #D6A61C",
"1.	c #E0A922",
"2.	c #FDE96E",
"3.	c #BE9943",
"4.	c #CCAC58",
"5.	c #218913",
"6.	c #229514",
"7.	c #208313",
"8.	c #FDCC1A",
"9.	c #EAB31A",
"0.	c #FEE972",
"a.	c #EAD585",
"b.	c #B48322",
"c.	c #C39435",
"d.	c #F7E698",
"e.	c #FFDE5A",
"f.	c #208613",
"g.	c #FEE779",
"h.	c #B68922",
"i.	c #C59A2B",
"j.	c #E3CD7C",
"k.	c #FEF19C",
"l.	c #FEEB7B",
"m.	c #FEEC84",
"n.	c #FEEEAA",
"o.	c #F0DD90",
"p.	c #B3842C",
"q.	c #CE992A",
"r.	c #D7AA2B",
"s.	c #C9AA52",
"t.	c #FFDB4A",
"u.	c #FED52B",
"v.	c #25A016",
"w.	c #EAC327",
"x.	c #FFF0A6",
"y.	c #D6B96C",
"z.	c #AA7619",
"A.	c #D5A837",
"B.	c #EDCA4B",
"C.	c #B58C34",
"D.	c #F4C40E",
"E.	c #1F8013",
"F.	c #26A716",
"G.	c #F7D436",
"H.	c #C4A13C",
"I.	c #DDC573",
"J.	c #FFF2A9",
"K.	c #B98D38",
"L.	c #B37E1D",
"M.	c #E8BB38",
"N.	c #BB8B23",
"O.	c #FCD439",
"P.	c #EFC10B",
"Q.	c #C59411",
"R.	c #208913",
"S.	c #FCD93A",
"T.	c #BC943E",
"U.	c #AC8026",
"V.	c #A7781F",
"W.	c #C28A26",
"X.	c #E9BE41",
"Y.	c #FCD434",
"Z.	c #BB8B0F",
"`.	c #A87616",
" +	c #ECBC0E",
".+	c #219114",
"++	c #BD9645",
"@+	c #AD7A1B",
"#+	c #BF9631",
"$+	c #ECD788",
"%+	c #C19B49",
"&+	c #D49B2E",
"*+	c #EDC543",
"=+	c #EED059",
"-+	c #F7C827",
";+	c #B5821C",
">+	c #BE911F",
",+	c #E6B912",
"'+	c #B9831E",
")+	c #C39C34",
"!+	c #A87B21",
"~+	c #BB8521",
"{+	c #F3CC44",
"]+	c #D8A60E",
"^+	c #C6960F",
"/+	c #DDAA32",
"(+	c #CDA326",
"_+	c #DEC44E",
":+	c #E5B333",
"<+	c #D0AF5C",
"[+	c #CC942B",
"}+	c #D59C30",
"|+	c #E2BD43",
"1+	c #C08F11",
"2+	c #24A415",
"3+	c #DCB335",
"4+	c #A87726",
"5+	c #E2AE33",
"6+	c #FEF8C9",
"7+	c #F6DB65",
"8+	c #BB8A12",
"9+	c #E3B33B",
"0+	c #CBA129",
"a+	c #D5B964",
"b+	c #F4E394",
"c+	c #A16F16",
"d+	c #D5A22D",
"e+	c #F1CF52",
"f+	c #D0B15C",
"g+	c #DAA32D",
"h+	c #A27117",
"i+	c #239715",
"j+	c #24A515",
"k+	c #AE822A",
"l+	c #D7B864",
"m+	c #DAA332",
"n+	c #F7D859",
"o+	c #EBBC35",
"p+	c #EBC54E",
"q+	c #CA9D26",
"r+	c #DBC36D",
"s+	c #B78913",
"t+	c #AC7B13",
"u+	c #E3AF1C",
"v+	c #C99713",
"w+	c #229814",
"x+	c #F8DA64",
"y+	c #F5CB3A",
"z+	c #F8CF37",
"A+	c #A27119",
"B+	c #C6A34E",
"C+	c #B07D14",
"D+	c #F2C539",
"E+	c #D4A334",
"F+	c #FADB53",
"G+	c #F4CE4C",
"H+	c #F5CA36",
"I+	c #C29225",
"J+	c #CC9B13",
"K+	c #24A414",
"L+	c #E3B650",
"M+	c #F6D24A",
"N+	c #DFB32F",
"O+	c #FBD543",
"P+	c #DCAA2C",
"Q+	c #E5BB50",
"R+	c #C4932C",
"S+	c #EEC135",
"T+	c #F9CF39",
"U+	c #F7E28F",
"V+	c #C1941E",
"W+	c #D09E13",
"X+	c #E1B30D",
"Y+	c #A26E22",
"Z+	c #B48B2D",
"`+	c #F4DD89",
" @	c #D1A20D",
".@	c #29BF17",
"+@	c #C68E29",
"@@	c #C79724",
"#@	c #E4BA2A",
"$@	c #DCAC11",
"%@	c #27B416",
"&@	c #9F7018",
"*@	c #D6B03A",
"=@	c #E4B80F",
"-@	c #D4AA4B",
";@	c #A06F19",
">@	c #D3A412",
",@	c #24A514",
"'@	c #DBAC0D",
")@	c #B48314",
"!@	c #B98715",
"~@	c #E4B311",
"{@	c #FEEE92",
"]@	c #C8A446",
"^@	c #218B14",
"/@	c #26A915",
"(@	c #EBB816",
"_@	c #27AE17",
":@	c #24A015",
"<@	c #26A616",
"[@	c #27B216",
"}@	c #24A215",
"|@	c #AF8118",
"1@	c #27AC17",
"2@	c #26AF16",
"3@	c #1F7D13",
"4@	c #239915",
"5@	c #27AB16",
"6@	c #229015",
"7@	c #26AA16",
"8@	c #CD9C0E",
"9@	c #24A115",
"0@	c #28B517",
"a@	c #25A216",
"b@	c #1E7B13",
"c@	c #27B516",
"d@	c #27B315",
"e@	c #228D14",
"f@	c #26A916",
"g@	c #218814",
"h@	c #26AB16",
"i@	c #25A215",
"j@	c #27B116",
"k@	c #1E7713",
"l@	c #27AD17",
"    .   . + @ # $ $ % & * = .             - ; > , & ' + ) ! % ~ { ; $ ] ^ / ; (     .               ",
"    & _ . : < [   $ } | 1 [           2 2 2 2 2 3 3 4 5 6 7 8 9 0 a . b c d e _   [ f a             ",
". f g h f i j k . _ 8 l m n o } 2 2 2 2 p 3 3 2 3 4 5 6 q r 6 r s 7 ( t 0 [       ( @ u (     [ [   ",
"( v w x y z g A B C e D E v 2 2 2 3 2 2 3 3 3 p F G q 6 r q r 6 r 6 s 7 9 $   .   H I J } a . K ' $ ",
"f t D z ^ y } L A 8 b n M 2 2 3 2 p 3 3 3 3 N O 7 P r P q q P r q P r r r [ $ Q [ $ ' > R } $ + S } ",
"8 f M T U 1 f [ _ < V W X Y 3 3 3 3 3 3 3 2 Z G q P q P P r P q r P q P 6 s `  ...  a c +.@.T j #.$.",
"%.T b &.= . .         - *.=.Y 3 3 3 3 3 N -.s 6 r r r q P P r q q P r P 6 ` ;.2 >.T ,.m '.t 0 ; J ).",
". V   _     ^ $   2 3 3 !.~.{.].p 3 3 ^./.s 6 6 (._.q q r q r P r P q q :.^.3 3 2 ..h % ,.<.9 9 [.W ",
"          [ j h 2 2 3 3 3 }.|.1.2 3 ^.2.r P P r 3.4.q r q P r q r 6 r :.^.3 3 3 2 2 K V & 9 ' V ( [ ",
"  $ ; 5.6._ 7.8.2 3 3 3 3 p 2 9.!.^.0.q q P P a.b.c.d.6 r q r P 6 s e.8.3 3 3 3 3 3 ;.[ $ .   [ [   ",
". f % n u f.;.2 2 3 3 3 3 3 p p ;.g.6 r r q q 4.h.i.j.6 q r q q k.e.N 3 3 3 2 3 3 ;.l.7 ..$ - K ... ",
"  ( h c # A 2 3 3 3 3 3 p p p ;.m.n.P P r q o.p.q.r.s.6 P P P 7 t.3 3 N 3 3 3 3 u.m.6 s v.T B +.U . ",
"    [ [ < 8.3 3 3 p 3 3 3 3 w.5 x.r 6 r P q y.z.A.B.C.d.q P 7 t.2 p D.}.3 2 3 4 5 6 r 6 5 E.$.F.y . ",
"  ( 6.<   2 3 3 3 3 3 3 3 G.H.I.J.6 r q r 7 K.L.M./.N.I.q 5 O.3 p P.Q.!.p 3 4 5 6 6 q m.u.&.B 6.B   ",
". ; C R.8.2 3 3 3 3 3 3 S.5 T.U.(.q q r q j.V.W.X.l.A.3.m.Y.3 3 D.Z.`. +p F 7 6 P r 5 u.3 2 $ k     ",
". U h .+2 3 3 p 3 3 N O G s ++@+#+$+q q s %+z.&+*+l.=+h.-+p 3 D.Z.;+>+,+O k.P P P 5 u.3 3 N         ",
". b u 8.3 3 3 3 3 2 Z 7 r r %+'+r.)+_.J._.!+~+&+{+l.l.i.]+p }.^+z./+(+_+k.6 6 6 m.u.3 3 2 3 . .     ",
"    % 2 3 3 3 3 N -.6 P r r ++L./+:+H.d.<+z.[+}+{+m.5 |+1+}.^+`.[+{+(+I.J.6 6 m.u.3 3 2 3 D.|.2+a . ",
"    ( 2 3 3 3 ^.-.6 q r P r %+'+r.*+3+T.4+L.&+5+O.5 6+7+*.8+`.W.9+/.0+a+J.6 m.u.3 3 3 3 Y =.t t A _ ",
". Q < 3 3 3 ^.:.6 b+o.r q P %+'+5+9+/.3+c+W.}+:+O.0.6+5 d+`.W.}+e+g.0+f+q G G. +D.3 2 9.g+W.h+i+| j+",
". v 2 3 3 ^.2.6 6 j.k+T.l+$+++~+M.m+n+:.A.[+}+o+O.Z G s p+W.&+:+` d.q+3.r+i.s+t+ +}.9.~.u+v+t+w+^ . ",
". U 2 3 ;.l.6 r 6 b+p.;+z.4+!+~+o+5+*+l.x+g+}+y+o+y+0.5 n+m+/+z+m.P 0+h+A+`.;+8+}.2 3 3 3 3 D.- .   ",
". f -+;.m.6 q r 6 6 B+'+[+C+c+W.D+5+5+/.:.m+:+D+E+q+F+l.G+5+H+S.g.5 0+c+@+q.I+J+3 3 3 3 3 3 3 3 K+. ",
"    F+m.P q r q r q I.@+r.&+'+W.o+o+m+{+:./+o+p+L+z./+2.{+H+O.y+:./.(+L.A.*+'+,+3 3 3 3 3 3 3 3 >.< ",
"    n.n.x.r q r q q b+p.q.o+}+&+/+5+A.r.M+M.y+B.L+C+N+t.O+O.{+A.{+O.P+/+7+|+C+Y p 3 3 3 3 3 3 p | * ",
". ,.y.7 x.x.r q r P P B+~+D+o+}+&+E+Q+[+z+O.O.y+m+&+O.O.O.G.p+R+S+D+S+7+m.0+1+3 3 3 3 3 3 3 3 D.@ T ",
"K v 4+I.q r q P P P r y.L.o+T+m+}+}+}+m+H+H+H+H+:+S+T+O.O.O.:+r.G.z+t.J.U+V+W+3 3 3 3 3 3 3 p X+F.,.",
"$.' Y+Z+b+q q r r P P j.L.:+O.5+}+}+}+m+m+r.d+&+g+g+g+P+:+o+D+O.S.S./.J.`+V+X+2 3 3 3 3 3 3 }. @D .@",
". k Y+h+B+r 6 6 q P q I.L.5+o+g+[++@~+b.@+@+@+`.`.`.`.`.@+;+h.@@r.#@n+m.:.*.$@p 3 2 3 3 3 p D.V _ %@",
"    A+h+V.j.q r r P q y.L.&+R+;+z.`.h+c+c+h+h+h+A+h+h+c+h+h+h+&@h+`.'+*@e+V+$@N 3 3 3 3 3 p =@      ",
"    ( h+!+$+q 6 r q 6 -@;+&+z.c+c+;@h+h+h+A+h+h+h+&@h+h+h+h+h+h+h+A+c+;+5+W.]+N 2 p 3 3 3 3  @      ",
"    ; h+T.r 6 r q r e.>@'+&+[+L.z.`.h+c+&@c+h+h+&@h+h+&@c+h+h+h+A+z.~+q.&+~+>@p 3 3 3 3 2 }.s+      ",
"  . ,.;@a+6 6 6 k.e.^. +t+W.}+}+[+[+W.~+L.L.@+@+@+@+@+L.L.b.~+N.+@[+}+}++@C+!.3 3 3 3 3 p X+`.      ",
". < ,@;@4.J.6 k.t.3 p 3 '@)@!@W.[+[+&+&+}+}+}+}+}+}+}+}+}+}+}+}+}+[+W.'+!@~@2 3 3 3 3 3 3 Z..       ",
". U E.B !+_.{@F 2 3 3 3 3 D.'@)+K.p.h.~+~+W.W.W.W.W.W.W.~+~+~+'+!@8+W+X+}.3 3 3 3 3 3 p X+`.        ",
". U | } A+H.Y.3 2 3 3 3 3 N O 7 7 o.j.y.l+]@Q.Q.Q.Q.Q.v+ @'@X+ +D.3 3 3 3 3 3 3 3 3 3 }.s+&@$ _     ",
". T 6.'.} `.$@3 3 3 3 3 N Z 7 7 U+$+U+6 G S.p 3 2 2 3 3 3 3 p 3 3 3 3 3 3 3 3 3 p p N  @h+. b ^@    ",
"  [ f.v /@;@C+!.3 3 3 3 w.L+-@c.c.l+d.{@O.3 3 2 2 2 3 3 3 3 3 3 3 3 3 3 2 3 3 3 p p N+V.&@: l o     ",
"    9 i+..8 A+)@!.3 (@~.&+'+z.%+a.6 {@4 p 3 3 3 3 3 3 3 3 3 3 3 3 3 2 3 3 3 3 3 N w.;+&@E } _@8     ",
"    ' :@<@y ;@A+!@|.&+&+L.c+B+7 q {@S.3 3 3 3 3 3 3 3 2 3 3 2 3 3 3 3 3 3 3 3 N w.h.h+@ 8 _ 6.B     ",
"    V ; [@}@n A+c+z.~+@+;@C.b+P {@O.3 3 3 3 3 3 3 3 2 3 3 3 3 3 3 3 3 3 3 2 3 =@|@&@A+6.$   $       ",
"< *     . K g u ;@c+c+A+!+j.q 7 S.3 3 3 3 3 3 3 3 3 3 3 2 3 3 3 3 3 3 3 3 3 '@t+&@A+^ . $ + k       ",
"T i K [ $ % 1@[.% V.c+c+C.b+7 F 3 3 3 3 3 3 3 3 3 3 3 3 3 3 3 3 3 3 3 3 P.^+`.&@A+, } k * i b . .   ",
"* z J f * ' 2@3@# 4@$.;@`.C.3+}.p 3 3 3 p 3 2 3 3 3 3 3 3 3 3 3 3 p }. @t+&@h+A+U 5@t ] F.6@Q . j+_ ",
"2+u 7@J % : 6.! m # @ k c+c+h+)@>@ +3 p p p 3 3 3 3 3 3 3 p p 2  +8@)@&@h+A+/ 9 9 J i 9 ^ :@_ K+% u ",
"n Q k [@b   : 6.u J t * % A+h+h+c+t+Z.8@X+ +D.}.}.}.Y D. +$@8@s+`.h+&@h+A+b 6. .f m M U R b [ } % 7@",
"F.A V . - . _ # % 9@0@u u 7.A+A+h+h+A+c+h+t+t+)@)@)@)@t+`.h+c+A+h+A+h+b B [ f.:@A K+,@R a@# > <@b@e ",
"c@D 1 f 6.K+k 3@U ^ d@..+.e@t =   &@A+h+h+h+h+&@h+h+h+h+h+h+h+A+h+  [ Q $ [ h $.f@6.* ,.g@E.^ , ..h ",
"    ..&.u 8 9 j h@).1 % 7@U B , f c V y A+h+A+A+A+`.;@A+h+A+f <     ) <.y [ ( f d v 8 T E.^ _ &     ",
"    = I E.% i@, * j@I S * ' U [@n + = k@b@6.* B .     ^@l@i ).h k . a I g ... .   2+a V B .   .     "};
