/* XPM */
static char * real_exit_xpm[] = {
"50 50 374 2",
"  	c #26AF15",
". 	c #26B015",
"+ 	c #229714",
"@ 	c #1F7E13",
"# 	c #218B13",
"$ 	c #26AD15",
"% 	c #218E14",
"& 	c #239E14",
"* 	c #239914",
"= 	c #24A014",
"- 	c #26B115",
"; 	c #229614",
"> 	c #239A15",
", 	c #249B15",
"' 	c #219014",
") 	c #26AB15",
"! 	c #1E7813",
"~ 	c #25A315",
"{ 	c #25A115",
"] 	c #218E13",
"^ 	c #25A515",
"/ 	c #25A516",
"( 	c #26AC15",
"_ 	c #25A915",
": 	c #249E14",
"< 	c #24A314",
"[ 	c #26AE15",
"} 	c #239714",
"| 	c #239515",
"1 	c #249F14",
"2 	c #218F14",
"3 	c #26AD16",
"4 	c #249A15",
"5 	c #218D14",
"6 	c #229114",
"7 	c #1E7A13",
"8 	c #208813",
"9 	c #1F8213",
"0 	c #25AB15",
"a 	c #24A214",
"b 	c #208713",
"c 	c #27B316",
"d 	c #249E15",
"e 	c #239C14",
"f 	c #239815",
"g 	c #229314",
"h 	c #208413",
"i 	c #25A815",
"j 	c #26A816",
"k 	c #218C13",
"l 	c #229414",
"m 	c #218914",
"n 	c #24A515",
"o 	c #249C15",
"p 	c #25A415",
"q 	c #229514",
"r 	c #218C14",
"s 	c #229014",
"t 	c #27AB17",
"u 	c #208314",
"v 	c #229214",
"w 	c #228F14",
"x 	c #239614",
"y 	c #25A615",
"z 	c #218F13",
"A 	c #1E7913",
"B 	c #239915",
"C 	c #239814",
"D 	c #26A817",
"E 	c #218A13",
"F 	c #27AA17",
"G 	c #27AD17",
"H 	c #26A616",
"I 	c #25AC15",
"J 	c #208513",
"K 	c #249F15",
"L 	c #239B14",
"M 	c #26AC16",
"N 	c #26AB16",
"O 	c #25A715",
"P 	c #1E7B13",
"Q 	c #24A215",
"R 	c #25A016",
"S 	c #24A415",
"T 	c #239715",
"U 	c #239D14",
"V 	c #24A114",
"W 	c #1F8113",
"X 	c #239A14",
"Y 	c #25AA15",
"Z 	c #27B115",
"` 	c #1F7D13",
" .	c #24A115",
"..	c #1F7C13",
"+.	c #239415",
"@.	c #208614",
"#.	c #249D15",
"$.	c #25A015",
"%.	c #218D13",
"&.	c #27B416",
"*.	c #24A315",
"=.	c #239514",
"-.	c #27AE16",
";.	c #239615",
">.	c #218814",
",.	c #24A414",
"'.	c #25A116",
").	c #208913",
"!.	c #218A14",
"~.	c #1F7F13",
"{.	c #218913",
"].	c #25A616",
"^.	c #208613",
"/.	c #219114",
"(.	c #24A015",
"_.	c #25A416",
":.	c #208313",
"<.	c #27AF16",
"[.	c #1F8013",
"}.	c #27AE17",
"|.	c #25A215",
"1.	c #25A216",
"2.	c #64BE68",
"3.	c #C7D6DA",
"4.	c #BACCD1",
"5.	c #B2D2BB",
"6.	c #26A916",
"7.	c #228E14",
"8.	c #229115",
"9.	c #27AF17",
"0.	c #218B14",
"a.	c #DFF1F3",
"b.	c #B6C6CA",
"c.	c #8AA2AD",
"d.	c #7C949E",
"e.	c #86A1A9",
"f.	c #9CB5BD",
"g.	c #C6E1E9",
"h.	c #E3FBFE",
"i.	c #64BD68",
"j.	c #24A514",
"k.	c #26AA16",
"l.	c #D4EAF2",
"m.	c #92B3BC",
"n.	c #74949F",
"o.	c #88A6B4",
"p.	c #94B4C4",
"q.	c #8AB5BE",
"r.	c #86AEBB",
"s.	c #A4C6D3",
"t.	c #D5F3F9",
"u.	c #CEEBF7",
"v.	c #DCF4FD",
"w.	c #26A716",
"x.	c #C6DDE4",
"y.	c #849AA5",
"z.	c #6A92A2",
"A.	c #7AA5B6",
"B.	c #729CB3",
"C.	c #7BAEC3",
"D.	c #7BABBD",
"E.	c #84B3C4",
"F.	c #9AC4D3",
"G.	c #ABCDDB",
"H.	c #27B116",
"I.	c #9EBD9D",
"J.	c #9EBC9D",
"K.	c #65BC69",
"L.	c #B3CCD4",
"M.	c #758C95",
"N.	c #729AAB",
"O.	c #659DB4",
"P.	c #6DA8C3",
"Q.	c #6BACC6",
"R.	c #82BCD3",
"S.	c #7EB7CA",
"T.	c #97C1CD",
"U.	c #8DC2D6",
"V.	c #64B868",
"W.	c #229215",
"X.	c #27B216",
"Y.	c #DCDCDC",
"Z.	c #929292",
"`.	c #DFF2F3",
" +	c #A2B5BC",
".+	c #6E868E",
"++	c #66899B",
"@+	c #638DA3",
"#+	c #5F94A6",
"$+	c #79B6D3",
"%+	c #A4C4CB",
"&+	c #63A068",
"*+	c #28B217",
"=+	c #64BC68",
"-+	c #6B8E9D",
";+	c #6392A5",
">+	c #94C3D5",
",+	c #7C9EB7",
"'+	c #5C8BA2",
")+	c #6493AA",
"!+	c #6DA4B6",
"~+	c #659BAC",
"{+	c #69A5B8",
"]+	c #76B0C4",
"^+	c #73ABC3",
"/+	c #73A6BC",
"(+	c #8BC3DC",
"_+	c #89BFD7",
":+	c #ADD1E1",
"<+	c #64AB68",
"[+	c #658B9B",
"}+	c #72A1B7",
"|+	c #698FA6",
"1+	c #597C90",
"2+	c #5A859C",
"3+	c #6C9DB3",
"4+	c #73AABE",
"5+	c #6CA4BC",
"6+	c #76AAC7",
"7+	c #55727D",
"8+	c #5E828E",
"9+	c #537D92",
"0+	c #6B96AD",
"a+	c #74B2CC",
"b+	c #73B5D1",
"c+	c #7DBDD8",
"d+	c #91BFD4",
"e+	c #A9C8D5",
"f+	c #D4EDF6",
"g+	c #208414",
"h+	c #556E76",
"i+	c #547684",
"j+	c #5C899E",
"k+	c #7BB5CC",
"l+	c #4A6B75",
"m+	c #547B8D",
"n+	c #55849B",
"o+	c #83ACC2",
"p+	c #B9D6DE",
"q+	c #63A868",
"r+	c #229814",
"s+	c #D6E4E9",
"t+	c #5B8194",
"u+	c #5886A0",
"v+	c #7BA4BB",
"w+	c #285367",
"x+	c #365C71",
"y+	c #74AEC9",
"z+	c #75B9D1",
"A+	c #45626D",
"B+	c #1A3E52",
"C+	c #03151F",
"D+	c #001B30",
"E+	c #253645",
"F+	c #4B6D83",
"G+	c #425C64",
"H+	c #4A6A75",
"I+	c #527689",
"J+	c #4B7386",
"K+	c #234454",
"L+	c #071B29",
"M+	c #101F32",
"N+	c #253F50",
"O+	c #43657B",
"P+	c #B9DBE6",
"Q+	c #249D16",
"R+	c #A4B6B8",
"S+	c #61767B",
"T+	c #436574",
"U+	c #2B4B55",
"V+	c #142C33",
"W+	c #0A232C",
"X+	c #1A292E",
"Y+	c #24333C",
"Z+	c #212E3C",
"`+	c #111F28",
" @	c #142C3A",
".@	c #446B7C",
"+@	c #497888",
"@@	c #4D7489",
"#@	c #3C606B",
"$@	c #15333D",
"%@	c #222D34",
"&@	c #162833",
"*@	c #0E2433",
"=@	c #193339",
"-@	c #3D545B",
";@	c #7CBBD4",
">@	c #49666D",
",@	c #4B717D",
"'@	c #3C667A",
")@	c #0F363E",
"!@	c #283339",
"~@	c #15292E",
"{@	c #12252C",
"]@	c #9BCBDD",
"^@	c #27B516",
"/@	c #99ADB6",
"(@	c #43585C",
"_@	c #3A6575",
":@	c #446C81",
"<@	c #597C8C",
"[@	c #092A36",
"}@	c #29BF17",
"|@	c #6B7C83",
"1@	c #447283",
"2@	c #7FC1DB",
"3@	c #B2D7BB",
"4@	c #4A5E66",
"5@	c #3C6D80",
"6@	c #1B424F",
"7@	c #1C3D4C",
"8@	c #193A45",
"9@	c #163542",
"0@	c #192D3A",
"a@	c #1C4353",
"b@	c #92BDCC",
"c@	c #6EB4CE",
"d@	c #64BA68",
"e@	c #334F61",
"f@	c #1D3444",
"g@	c #163D4B",
"h@	c #154149",
"i@	c #0A2B39",
"j@	c #64B568",
"k@	c #1A4455",
"l@	c #143945",
"m@	c #82B5CA",
"n@	c #234B5C",
"o@	c #97B5C7",
"p@	c #B1BFC0",
"q@	c #3A5B6C",
"r@	c #27515F",
"s@	c #1E495B",
"t@	c #163F51",
"u@	c #7897A9",
"v@	c #234D61",
"w@	c #1F4C61",
"x@	c #20404F",
"y@	c #89B7CA",
"z@	c #345866",
"A@	c #255263",
"B@	c #294F63",
"C@	c #294C5D",
"D@	c #0C3641",
"E@	c #63A168",
"F@	c #35535D",
"G@	c #395465",
"H@	c #415D6D",
"I@	c #B1CDBB",
"J@	c #8196A3",
"K@	c #93A9B4",
"L@	c #A5BDC3",
"M@	c #26AF16",
"N@	c #639868",
"O@	c #64B368",
"P@	c #1E7812",
"Q@	c #27AC17",
"R@	c #208814",
"S@	c #1D7212",
"T@	c #208113",
"U@	c #25A316",
"V@	c #27AB16",
"W@	c #229015",
"X@	c #208213",
"Y@	c #1C6D12",
"Z@	c #27AC16",
"`@	c #27B017",
" #	c #28B517",
".#	c #27B315",
"+#	c #228D14",
"@#	c #259E16",
"##	c #229315",
"$#	c #1E7713",
"    .   . + @ # $ $ % & * = .             - ; > , & ' + ) ! % ~ { ; $ ] ^ / ; (     .               ",
"    & _ . : < [   $ } | 1 [               _ ' 2 3 4 5 1 6 7 5 8 9 0 . a b c d _   [ e 0             ",
". e f g e 7 h i . _ 5 j k l m } ; n $   0 g o g _ p # + ' ; a q o e ( r 9 [       ( @ 2 (     [ [   ",
"( s t u v w f x y z d p A s d B ! p C i 0 q D E C F r y g y   v G 8 l H 8 $   .   I J K } 0 . L ' $ ",
"e r p w ^ v } M x 5 a l E r 8 + g * N x * O w P Q R } S M T C ^ T A U / g [ $ V [ $ ' > 4 } $ + W } ",
"5 e E X 6 1 e [ _ < Y U 5 h i   $ L Z T J U ` V 0 L $ e $  .W = @ X $ e ( . i ..C   0 b o +.X h @.#.",
"$.X a %.= . .         - % +.} Y q S &.a k U ^ . _ f ~ U Y = < [ *.      Y . i W =.X O k -.r 9 ; K ;.",
". Y   _     ^ $       0 %.* ^ 8 k V q s J >.,.  U T '.).r !.} 0 -   [ 1 g i 0 9 # C g % O ~.8 8 !.U ",
"          [ h g [   0 } =.v L ~.l < %.* {.].f = ^._ x @ /.B @.(.(.[ 0 5 j g  ._.E &.L Y & 8 ' Y ( [ ",
"  $ ; {.q _ :.| X [ a | '.L 0 S j l _   X q <.x q < @ [.g q 9 (.{ X Y *._.P C }.5     [ $ .   [ [   ",
". e % l 2 ^.:.O |.C 8 p B C [ X J 1.6 i g + 2.3.4.3.5.V $ - O 6 <.4 9 1 @ E a g ^   [ U C $ - L C . ",
"  ( g b # x * 2 6.7.:.+ o 8.8 [.r 9.0.6 1.a.b.c.d.e.f.g.h.  . 0 i.U * y /.0 0. .,.. j.6 R X y o 6 . ",
"    [ [ < % g * ` 2 a 2 k.7.~.[.x  .` k l.m.n.o.p.q.r.s.t.h.= l.u.u.v.i.  U @ 6.B V _ ~ o [.#.w.v . ",
"  ( q <   . - X >.B + # * q X % M g ^.x.y.z.A.B.C.C.D.E.F.G.s.m.q.q.s.g.v.% , > H.v E 1 ..%.y q y   ",
". ; z ).0 . 1 P r 3 ;.U I.J.6 ;  .K.L.M.z.N.O.P.O.Q.R.R.S.D.A.A.T.U.T.s.g.h.3 V.( 5 L 1 2 $ $ i     ",
". 6 g /.e a W.W X *.X.Y.Z.Z.Y.[ `. +.+++@+#+O.O.P.P.Q.$+S.S.D.D.D.U.T.q.%+t.&+1 v U   [ [           ",
". a 2  .@ 2 *+r I =+=+d.-+@+;+>+,+@+@+@+'+)+!+~+!+{+!+]+^+/+P.^+$+$+(+(+_+:+<+r U     < e   . .     ",
"    % -.1.g g 1   . 4..+[+N.;+}+|+@+1+2+3+3+~+!+#+{+4+]+4+5+/+6+$+$+(+R._+G.h.q   . i v B U i S 0 . ",
"    ( . Z V % : y a.M.7+8+N.'+'+9+'+'+)+0+)+'+)+4+!+{+{+P.6+6+a+b+$+c+R.d+e+f+0.<   L 4 R 8 r r x _ ",
". V < . . 2 j g+v 4.h+7+i+j+j+j+'+9+)+3+'+)+B.3+~+!+4+^+P.5+6+k+a+$+$+S.d+d+g.w.B 1 ^.Y g [.2 T | n ",
". s ~.^ = 2 3 J y d.l+8+m+9+n+'+'+)+@+)+0+0+B.o+B.B.3+3+3+P.6+6+a+$+a+S.U.>+p+q+H.x C a ` W ; r+^ . ",
". 6 ;.f s q % & s+h+l+8+t+9+n+u+9+O.u+u+v+9+w+x+B.,+6+,+^+6+y+6+z+z+a+R.R.>+G.v.- ) $ ( < ,.[ - .   ",
". e g -.| 1 :.a.y.A+7+m+2+2+9+u+9+'+'+|+1+B+C+D+E+F+o.E.D.3+}+C.a+]+k+$+S.U.F.u.=+[ = $ . . . y ,.. ",
"    X q i = 4.M.G+H+i+I+1+u+u+)+0+J+|+N.K+L+M+M+D+M+N+O+-+r.E.D.]+4+a+(+]+U.>+P+=+( ~.6 $ . i q =.< ",
"    g Q+g R+S+h+l+T+m+m+2+j+9+0+[+8+T+U+V+W+X+Y+Z+Z+`+ @ @K+T+A.4+5+]+{+c+R.U.T.t.$ J 4 C $ L 8.| * ",
". O % }.R+M.h+h+T+.@+@@@m+2+u+@+#@U+$@ @Y+E+Y+%@%@%@`+&@W+*@=@-@C.~+]+]+k+;@U.>+P+h.).y _.l ! 7 @ X ",
"L s } s+S+>@H+,@'@,@+@@@J+t+++@@)@V+W+V+=@!@Y+%@%@!@X+%@~@{@W+W+D.!+4+k+Q.U.R.>+]@g.a Q ^@!.P 0.w.O ",
"#.' ,./@(@A+l+,@_@:@@@@@@@<@1+K+W+[@=@=@V+V+X+%@X+X+{@{@{@~@C+W+z.E.4+k+a+z+;@U.T.s.h.0.X E & g p }@",
". i =+|@(@H+.@.@'@1@1@9+I+1+F+[@)@=@$@$@$@$@=@V+V+~@~@L+{@~@{@C+.@F./+^+;@a+2@U.>+m.f+= O O $ Y _ &.",
"    3@4@>@A+_@1@5@5@5@@@I+<@T+ @6@7@8@9@$@)@=@[@$@=@=@V+V+V+0@L+a@b@D.^+c+c@2@S.]@q.P+d@.           ",
"    s+-@>@_@_@1@5@5@1@F+I+i+e@f@B+K+K+g@h@)@)@)@)@[@9@ @9@*@0@L+i@z.E.^+a+a+2@z+U.T.L.j@&           ",
"    3.-@>@,@'@1@5@5@@@F+@@h+N+f@B+a@a@a@6@k@h@)@h@[@l@ @9@ @E+0@D+O+b@a+Q.a+2@S.m@T.e+q+o V .       ",
"  3@b.(@4@>@T+.@.@.@F+F+i+.@n@6@B+k@a@k@a@a@B+6@7@7@8@$@9@=@$@$@*@E+o@,+m@k+Q.c+2@R.]@v.'.} .       ",
". < p@(@q@#@T+.@.@.@F+F+I+.@r@s@B+t@B+t@g@t@t@g@7@7@8@8@9@9@9@=@*@ @u@o+4+a+a+z+z+(+>+P+l a .       ",
". 6 R+-@A+#@.@.@_@O+:@:@+@'@r@s@v@w@w@s@s@k@k@k@6@s@6@x@8@l@8@8@9@M+@@y@C.c@c+b+z+(+S.F.v..         ",
". 6 R+-@,@z@_@x+.@:@@@@@I+,@r@n@w@v@s@s@k@k@B+B+a@K+K+6@8@l@8@8@l@[@v@6+a+Q.b+c@2@U.(+F.s.g.$ _     ",
"`.X /@e@l+q@_@x+x+O+F+F+J+.@w+A@w+w+w+B@v@v@n@n@n@C@C@K+a@7@7@7@D@D@D@#+2@4+y+z+$+a+d+d+b@s.u.E@    ",
"  [ p@G+h+T+.@T+x+x+O+O+J+.@x+z@B@B@B@B@B@C@C@C@K+K+U+K+N+7@7@N+D@g@[@+@!+{+O.^+6+R.y@y@s.s.e+h.    ",
"  =+b.4@G+F@F@C@e@e@G@G@A+A+F@z@q@q@q@q@q@H@q@q@A+A+A+H@H@A+A+H@A+H+#@8+z.z.N.N.|+0+N.u@r.o.y.P+    ",
"    I@y.y.y.y.y.J@J@J@d.y.e.u@e.c.c.c.c.c.K@K@K@K@/@/@f. + + + +L@f.f.%+f.m.e+o@G.o@L.G.L@L.3.v.    ",
"    Y ; X.Q l C s _.* C % M@N@&+; , #.O@= i # {.: 5 ' ' E 5 v 3 , J g d l [ $   = e _ q $   $ =+    ",
"< *     . L f 2 % p |.% = g P@k g r+V X     . . $ n /.v % s v _ ^ W V [.' $     [ L ^ . $ + i       ",
"X 7 L [ $ % Q@!.% [.s U   < C ,.0   L 7 U ( y n % R@J ; V U O y 2 U ( L ! ; $ - L , } i * 7 a . .   ",
"* w K e * ' M@` # B #.;   U b $ 5 l * 6 K l W S@0.d !.T@U   [ 5 H h l g R@U@* _ 6 V@r ] w.W@V . n _ ",
"S 2 k.K % : q ! k # @ i = ;.X@( ).r s % N d 5 # 8 S@Y@o K L U l Z@@ 5 6 6 y / 8 8 K 7 8 ^ (._ ,.% 2 ",
"l V i X.a   : q 2 K r * % `@7.) % (.K 2 O _ ..J b g , v 3 #.7 * 6 } % 0.w a q ..e k E 6 4 a [ } % k.",
"w.x Y . - . _ # %  . #2 2 :.+   O E 6 o & a g+W@l E R@* . (.' y k $ i a y [ ^.(.x ,.j.4 1.# > H P d ",
"^@p 1 e q ,.i ` 6 ^ .#C o +#r =   ; o @#8 ^ 6 #.( 0 Y ( 1 ( [   $   [ V $ [ g #.6.q * O >.[.^ , C g ",
"    C %.2 5 8 h N ;.1 % k.6 y , e b Y v W % ##q O .   * T } e <     ) ~.v [ ( e c s 5 X [.^ _ &     ",
"    = J [.% |., * H.J W * ' 6 X.l + = $#P q * y .     0.G 7 ;.g i . 0 J f C . .   S 0 Y y .   .     "};
