/* XPM */
static char *_0b4078f559f4d44c8b963ac85e890c9LKNgW9NbqA8lTKbG[] = {
/* columns rows colors chars-per-pixel */
"60 60 103 2 ",
"   c #19100B",
".  c #241A15",
"X  c #271E1A",
"o  c #281F18",
"O  c #2B231C",
"+  c #2F2522",
"@  c #2F2B22",
"#  c #312722",
"$  c #342B25",
"%  c #382D27",
"&  c #37322C",
"*  c #3D332D",
"=  c #3F3430",
"-  c #43362D",
";  c #413731",
":  c #443B34",
">  c #493D36",
",  c #453D39",
"<  c #483F38",
"1  c #4B4137",
"2  c #47413B",
"3  c #4C433C",
"4  c #51453E",
"5  c #52483F",
"6  c #4D4440",
"7  c #4F4840",
"8  c #514741",
"9  c #544B43",
"0  c #594E45",
"q  c #564D48",
"w  c #5A4F48",
"e  c #595047",
"r  c #55504A",
"t  c #5C534B",
"y  c #5C5651",
"u  c #5E5953",
"i  c #61564D",
"p  c #62594F",
"a  c #625751",
"s  c #645B53",
"d  c #695D54",
"f  c #635E58",
"g  c #685E59",
"h  c #6B6056",
"j  c #65625C",
"k  c #6C635A",
"l  c #6E685F",
"z  c #72665D",
"x  c #73695E",
"c  c #786A5F",
"v  c #6F6961",
"b  c #706761",
"n  c #746C63",
"m  c #796E64",
"M  c #736E68",
"N  c #777066",
"B  c #7C7166",
"V  c #767068",
"C  c #7D746A",
"Z  c #7F786E",
"A  c #7E7B72",
"S  c #827466",
"D  c #81766C",
"F  c #847A6E",
"G  c #8A7C6F",
"H  c #847C72",
"J  c #897E74",
"K  c #847F79",
"L  c #868176",
"P  c #8B8276",
"I  c #86827A",
"U  c #8C857C",
"Y  c #8E887E",
"T  c #948476",
"R  c #998676",
"E  c #918877",
"W  c #92867B",
"Q  c #998679",
"!  c #93897E",
"~  c #998B7D",
"^  c #9A907F",
"/  c #A08F7F",
"(  c #A3907F",
")  c #868580",
"_  c #8C8781",
"`  c #878A85",
"'  c #8D8A82",
"]  c #8D8F8A",
"[  c #908780",
"{  c #948C82",
"}  c #998E83",
"|  c #928E89",
" . c #988F88",
".. c #969186",
"X. c #9B9185",
"o. c #959189",
"O. c #9C9389",
"+. c #9E988C",
"@. c #9D9892",
"#. c #A19485",
"$. c #A1958A",
"%. c #A3998D",
"&. c #A39C91",
/* pixels */
": 9 : < < : ; ; $ $ 1 : , , : , : , : : , ; = 5 s B 4 > 4 O * 5 7 9 t t q , < : < w 0 q 6 2 = & = $ O . $ e e * - = > : ",
"I o.U H I P J { l b { I I K K I I I J P H H U Y U ! ..d O b H n j s s f k n D L { } O.{ { o.` ) Y A N z 3   % d b M C H ",
"{ E { } { W W } n A { { { ' ' ' ' ' { { U _ U U U I U H 2 U U Y { O.o.X.....} E W _ ' _ U ' Y ' _ ] ......& M o.{ _ _ U ",
"I I I I _ W P { d A { ' _ _ ' Y Y _ Y Y U U I Y U I Y A , I I I L I L P L U P W U W U W ' Y Y _ Y _ U I { 5 V Y I U U K ",
"I I I I I U I [ t F Y U _ Y _ Y _ Y Y Y Y Y U U U I Y A < _ U U I I I I U I U U U P P U [ _ ) Y ' _ ' _ | r C ' U ) U U ",
"U U U U I P P { r C U U ' ! Y ! Y Y ! E E Y Y Y Y Y { C 1 ' I U Y U U I I I U U U P I P U _ _ Y U U U ) { r V ' U ) ) U ",
"I U U I U U U U s H Y U Y Y Y E Y Y ! Y Y E W U Y Y } N 3 } I ) U I U I I U I U U I P U U U ! ' U I I I ' t v ` I ) ) I ",
"U U I I U I I } 2 C _ P Y Y Y Y E ! Y E ! E ! ! W Y } N q O.U ' U U U U I U U U U { { U [ ' _ Y Y ` ) I ] u v ] U ) I U ",
"! ! U ! W I W K : v ' ) Y ! Y E ! Y ~ E ~ E E E ! Y E U 3 L ! U U [ W _ U W [ [ { ! Y U Y U ' U Y ' ` U o.u v o.I ` ' ' ",
"Y U Y ! W { W n A y { ' ! ! ! ! E ! E E ! ! X.X.~ } ..%.t 9 %...{ { { W U [ W _ U U U { U I ! { Y ' _ Y { k V { ' ! ! ' ",
"..X.....O.D 9 P O.d l X.#.( #.#...X.~ X.X.E G S S C n s $ + k n m H U { {  .{ { {  .{ ....X.X.o.........+.C C X.! } ....",
"S c k s p 5 < t d u * 9 i p e i d s p 5 9 p e p z c N N C C n z t < : 1 9 w a d d k b b s g g l z b m n b , e U P U C B ",
"9 0 i s n } ..! ! Y { l t G * e G S P 1 t #.X.X.( X.}  .....O.O.O.} I H G D m C C C H C 9 . - : ; ; : , > 3 t j 1 $ 8 9 ",
"O.$.$. .} } { { { { ! Y X.%.p c #.~ #.x p X.~ ~ ~ ~ Q { ~ ! [ ~ {  .} } }  .{ J { { { ..I , { ..{ .. .{ O.O.+.@.A 1 &.$.",
" .} } W W Y ! ! { { Y Y ! #.h h #.E ^ B i ( ~ ^ ~ ! ~ { { W { { } { { [ ! W ! U J I { Y K 7 _ ' { ! { ! ! Y ' o.J 8  .[ ",
"} } } } W W Y { ! ! ! ! ! X.c k #.E ^ S d X.! ~ ! ! ~ [ { } { { { { } ~ { ~ { ! { U C ..A t ..U ! { { ! { ~ { { D 3  .~ ",
"~ } } } ~ Q W { ! { ! ~ ~ X.B d X.~ } G k X.! } ~ ! { { { { { { } W } { W } W [ W  .N d j e { ! Y { { { ~ { }  .H <  .} ",
"Q } ~ ~ ~ ~ } { { U { { W } G 0 T L ~ D s X.! ! { { W { W { [ Q [ W { ~ } W ~ { { W { z 9 e { } { ! { { { { }  .H 3 { W ",
"~ } } ~ ~ ~ W { ! { ! [ {  .G m X.z z G c ~ Y } { { ~ W W } [ ~ [ { { { ~ ~ { W { W ~ { U p Y ! ! { { { [ { o.O.J 8  .} ",
"J W { ~ ~ ~ { { W { { { W } H D X.X.F z B X.! } { { { { { [ W [ [ ~ W { W } W { [ { W { { t ! { { [ { { { { { X.W <  . .",
"W Q J Q Q Q { { { { { W { { D C X.~ X.G h X.~ ! [ { ~ { } [ { ~ W { W W ~ { ~ { ! { ! { P 9 Y { { { ' { { o.{ X.D < }  .",
"Q J J R R Q ~ [ { W { { { { J D X.~ } J k ^ ~ ! } { { } { W W W ! E W ~ W W ! [ { W ! } I q } ' ' { { { { { { X.H 4  .} ",
"J Q R R T W { ! W { ! { W { J C } ! } L p ^ ~ ~ ~ { } [ [ P W [ ! R W W { { W ~ W ~ { { U t { { { { { ! { { { X.J 3  .} ",
"J J T Q ~ { W { { ! W { ! ..Z b ..~ } L p ( ~ ! ~ W [ W { P T W W W W W { ! { { { W U [ W t { U U { { { W { } } H > W T ",
"Q W ~ ~ W [ } W W { [ W [ { D d ..{ ~ E 8 ~ ! Q ! ~ W U { W T T E W W W W ~ ~ ! ~ } ..O...1 C O.{ o...U { X.X.$.W < T P ",
"~ { Q W W [ W { { { { } { +.I k +.{ { X.q E ~ ! W ! } { {  ...} } X.} X.X.} [ { U P h 9 1 . O h J C v C H B n z 7 - { T ",
"} #.#.} O.X. .T P [ U H H C e , C C H N O F ..#.#.~ J G D D S D B d d t 9 k B b n n k k N k o * e , , 3 3 5 0 p 8 $ U } ",
"9 w p d a q 8 t 8 # % 0 0 k d d s s t t 4 , 0 9 4 > 4 p n D F J G H G m . s O.W }  ...X.} %.h k +.{ } } ..} #.$.} # ; 4 ",
"S z d d s b H ~ W % k O. ...X.O.X.o.} / ~ R H D - 5 $.~  .} } } ~ } ~ %.i n X.Q ! Q ! Q E } H l ..! ! Y ! W R Q ! - J P ",
"} #.$.X.O.} } W } s U { ! Y { U [ { W Q W { } O.P z X.E W { { ~ ! ! ~ X.d S ~ ! ! ! ~ ~ Y } H k ..Y ! ! ~ E Q ~ ~ 3 L ..",
"{ ~ W W P U W W { n U { { Y { { ! { { ! ! ! ! ! P B } ~ ~ { { W ~ ~ W X.e B ^ Q Q ! ! ! ! } L s ..! ! ! ! ' { } O.5 G } ",
"} { { ~ W { W { [ n { ' { W U ! { { ' ! Y { ! } P B ~ W { ~ { ~ ! ! ! #.i B ^ E ! ! ' { ! ~ E r { E ! ! ! ! Y { X.q N X.",
"{ { { } ! U ! U { n U { { ! { U ! Y { Y { U W { P C { ~ ! ! ! ! ! ! ~ U : N } W W { { { { ~ { 3 L ! ! { ! ! ! E X.t c #.",
"{ { { { ! ! ! { ' b { { Y ' ' { ' W U { { Y U ! U n { { ~ ~ ! ! ! ! Y U a z  .P W { | { ' U X.9 a X.Y ! Y ..! L { t z #.",
"' ' { { } ! Y ! W k ' ' Y { ! { { ' Y Y U Y Y Y I l U ! ! ~ ! Y Y ! W ..k b  .W W { { { ! Y O.t 3 ! Y ! ! Y Y U { 9 s ..",
"{ { ! { ! E U U ! s _ { Y ! U U W Y Y Y Y ! U ! J s W U U U Y U Y U ! ! z n { U W W _ { ! Y +.s p &.} ....{ { ! o.2 d } ",
"V C L I U Y Y Y ! 5 L ..{ ....{ { ......{ ! ' { C 3 ' U Y Y { { { ! { X.C l ..W U W U ! Y ..U * $ h n e z N N V n X 2 A ",
"& = 2 3 5 e t s h , u k l h s k k k d t k n N z t 3 a l n n b z n V C M y 3 L I U L J L ! n 9 9 9 9 4 ; , O O 2 y f t , ",
"Y I I I L I L L J Y I I L C n C C Z n @ Z U U Y _ { { U U U L K I I I D b d t y s s s j e $ P O.X...X.{ +.d 9 +.' ] { _ ",
"I Y I Y I Y U U U U Y ! Y } ....X...O.1 H { Y Y W U Y U ! Y W ! ~ { ~ { {  .{ U ! U Y Y I s L ! Y U ! _ { s t ..I I I ) ",
"U W U U U P U U ) Y L U L H A C N G C , P ! Y ! U U { U U W [ W Y ! E Y ! Y ! Y ' ! Y U ' g H { ! ! Y Y o.e d ..U I U U ",
"' U W U U ! U U _ Y E Y E { ! U L L Z 3 Z } Y ! ! { Y { { ' W [ ! Y { ! Y ! Y ! ! ! ! U { s H { Y ! Y Y o.9 z { _ _ ` { ",
"[ W W ! ! U U ' ' Y Y Y Y { ! ! { ' X.t C ! ! ! { Y { U W Y ! U Y Y ! Y ! ! Y ! Y Y ! { Y j A ..Y ' ' ' ..9 n ..' ! W [ ",
"{ { { Y ~ ! Y ! ' ! Y ! Y Y Y { ! ! ..s N ..! ! ! ! ! ! U { ! { ! ! ! ! ! Y ! Y ! { Y U ..h F ..{ { W ! ..3 N  .U ~ { } ",
"} { { W ! X.! } ! Y Y Y ! ! Y Y ! ! O.s z  .W { ! Y E { ! ! _ { { { { { ' ! ! Y Y ! Y Y ..n P ..! { ! U { 7 C { { { { { ",
"{ ~ } { ! X.} ~ ..Y ^ ! Y { { ! ! ! ..z h ..! { { Y ! ! Y { W { { { { ! ! { { ! { ! ! ! +.9 y ! ! ..O.+.&.q C ..| | { { ",
"{ { [ { ..! ..^ Y Y ! Y Y Y Y ! ! ! ..D h X.{ { { ~ { } { } { { {  .{ { { X.Y P ! { U L e & t i t e t y s $ H o.| | ..{ ",
"%.$. .{ ! ' Y ! ! ! ! Y ! Y ..! ! ! X.P d Y H H I { W U P W { { { [ U J H C M s 2 ; 9 2 u Y ..^ { B O k n 1 e  .O.$.O.$.",
"n S T T J J J P P L P P Y U U P P F H e O e p q * # ; a g s d d t i i a g d d z b F U { ] Y Y ! { L 1 X.X...k 8 4 0 a h ",
"i ; o 0 t 0 0 0 9 9 9 9 e e t t p p p t B X...} W 3 B { }  .} } ~ } } }  .#./  ...{ { U ` Y E ! ..C 3 } Y { O.W B z d i ",
"$.S - } } Q ~ Q ~ ~ { ! E ' ! } ..X.X.O...} ! W  .B F } W { W W W W ~ ~ W ~ Q T U W ! Y ! ' Y U O.B 9 X.! { {  .{ ..O.X.",
"~ m d $.Q Q W ~ R W E Y ! ! ! ! ! { { { { }  .!  .l C } W [ ! ! W [ ~ [ ~ W W [ ! ! ! W Y Y ! { ..n 0 O.{ } }  .{ } } ! ",
"~ c d #.Q R Q Q Q ! ~ ! Y Y { { { { { } { { { W  .m D } [ { W { W ! W ! ~ W W W W ! [ ! ! ' Y { X.k t +.{ { {  .} {  .{ ",
"~ z z / R Q ! Q ~ E Y ' ` ' ' ' { { { { { ! [ {  .m D  .~ W { W [ ! W [ W { ~ ~ W ~ ! ! { ` ` { +.s g +.{ { { } } }  .X.",
"~ c m R R Q R R Q Q ! ' ` ] ' ..{ { { { { W { W } z D  .{ W ~ W ! W ~ W W W W W Q ! U ~ ' ` ` ' o.y v +.{ { {  .~  . . .",
"W z S Q T Q Q R Q Q E ! ' ` ` ..| o.{ } [ { } W ..k B  .U W W W W { [ W ~ W Q Q Q R Q W ! ' ] ` @.7 C o...}  . .} } { { ",
"~ d S } ~ [ [ { Q Q W { { ' ' { { { { ~ ~ ! ~ Y  .d m } W W W W W W ! W ~ W W { ~ W Q ~ { ' ' ` o.6 A ..} ! } ! } ! W E ",
"~ t S / ~ [ ~ [ [ W [ { ] ' ..' } ~ ~ ! ..~ ~ Y ~ t c } T W W ! W W ~ Q W ! { W _ ! W Y ' { ..' { 3 J } ! ! ! } ! ! P T ",
"} 4 G } ~ { { ~ W { W { ' { ' { { { { { ! ! ! } $.9 z ~ P W ~ } ! ~ } ! ! ~ ! { { } { { { ' { { ' : P } ! ! ! } { U W W ",
"J - J } { [ Q } { { [ [ { ' | ' ' ' { { ! { { H m * B } ! ~ ! ~ } { ~ ~ ~ ~ { ! J H J K U ' ' o.V . k  .{ } ! { { ~ { ~ "
};
