/* XPM */
static char *fdd869ee627e4cc5cdfb8e7bdeb40e15b8ZbxQs8xoVNOaEc[] = {
/* columns rows colors chars-per-pixel */
"50 50 198 2 ",
"   c #26AF15",
".  c #26B015",
"X  c #229714",
"o  c #1F7E13",
"O  c #218B13",
"+  c #26AD15",
"@  c #218E14",
"#  c #239E14",
"$  c #239914",
"%  c #24A014",
"&  c #26B115",
"*  c #229614",
"=  c #239A15",
"-  c #249B15",
";  c #219014",
":  c #26AB15",
">  c #1E7813",
",  c #25A315",
"<  c #25A115",
"1  c #218E13",
"2  c #25A515",
"3  c #25A516",
"4  c #26AC15",
"5  c #25A915",
"6  c #249E14",
"7  c #24A314",
"8  c #26AE15",
"9  c #239714",
"0  c #239515",
"q  c #249F14",
"w  c #218F14",
"e  c #26AD16",
"r  c #249A15",
"t  c #218D14",
"y  c #229114",
"u  c #1E7A13",
"i  c #208813",
"p  c #1F8213",
"a  c #25AB15",
"s  c #24A214",
"d  c #208713",
"f  c #27B316",
"g  c #249E15",
"h  c #239C14",
"j  c #239815",
"k  c #229314",
"l  c #208413",
"z  c #25A815",
"x  c #26A816",
"c  c #218C13",
"v  c #229414",
"b  c #218914",
"n  c #24A515",
"m  c #249C15",
"M  c #25A415",
"N  c #229514",
"B  c #218C14",
"V  c #229014",
"C  c #27AB17",
"Z  c #208314",
"A  c #229214",
"S  c #228F14",
"D  c #239614",
"F  c #25A615",
"G  c #218F13",
"H  c #1E7913",
"J  c #239915",
"K  c #239814",
"L  c #26A817",
"P  c #218A13",
"I  c #27AA17",
"U  c #27AD17",
"Y  c #26A616",
"T  c #25AC15",
"R  c #208513",
"E  c #249F15",
"W  c #239B14",
"Q  c #26AC16",
"!  c #26AB16",
"~  c #25A715",
"^  c #1E7B13",
"/  c #24A215",
"(  c #25A016",
")  c #24A415",
"_  c #239715",
"`  c #239D14",
"'  c #24A114",
"]  c #1F8113",
"[  c #239A14",
"{  c #25AA15",
"}  c #27B115",
"|  c #1F7D13",
" . c #24A115",
".. c #1F7C13",
"X. c #239415",
"o. c #208614",
"O. c #249D15",
"+. c #25A015",
"@. c #218D13",
"#. c #27B416",
"$. c #24A315",
"%. c #239514",
"&. c #27AE16",
"*. c #239615",
"=. c #218814",
"-. c #24A414",
";. c #25A116",
":. c #208913",
">. c #218A14",
",. c #1F7F13",
"<. c #218913",
"1. c #25A616",
"2. c #208613",
"3. c #219114",
"4. c #24A015",
"5. c #25A416",
"6. c #208313",
"7. c #27AF16",
"8. c #1F8013",
"9. c #27AE17",
"0. c #25A215",
"q. c #25A216",
"w. c #26A916",
"e. c #228E14",
"r. c #229115",
"t. c #27AF17",
"y. c #218B14",
"u. c #24A514",
"i. c #26AA16",
"p. c #26A716",
"a. c #27B116",
"s. c #25A514",
"d. c #249D16",
"f. c #239B15",
"g. c #249C16",
"h. c #229215",
"j. c #27B216",
"k. c #208A13",
"l. c #28B217",
"z. c #26B016",
"x. c #208414",
"c. c #228F15",
"v. c #208213",
"b. c #26A316",
"n. c #1D6F12",
"m. c #229814",
"M. c #239315",
"N. c #229015",
"B. c #249A16",
"V. c #25A614",
"C. c #208814",
"Z. c #1E7713",
"A. c #249E16",
"S. c #1C6D12",
"D. c #218714",
"F. c #1C6E12",
"G. c #27B516",
"H. c #249D14",
"J. c #239414",
"K. c #218813",
"L. c #29BF17",
"P. c #28B417",
"I. c #27AD16",
"U. c #1D7112",
"Y. c #239215",
"T. c #1F7B13",
"R. c #27B016",
"E. c #208714",
"W. c #259F16",
"Q. c #1D7012",
"!. c #1D7313",
"~. c #219013",
"^. c #208514",
"/. c #26A516",
"(. c #229013",
"). c #26A717",
"_. c #1E7C13",
"`. c #239F14",
"'. c #26A416",
"]. c #26A915",
"[. c #1E7612",
"{. c #27B315",
"}. c #26AA17",
"|. c #26AE16",
" X c #26AF16",
".X c #1E7812",
"XX c #27AC17",
"oX c #1D7212",
"OX c #208113",
"+X c #25A316",
"@X c #27AB16",
"#X c #27AC16",
"$X c #27B017",
"%X c #28B517",
"&X c #228D14",
"*X c #259E16",
"=X c #229315",
"-X c white",
/* pixels */
"    .   . X o O + + @ # $ % .             & * = - # ; X : > @ , < * + 1 2 3 * 4     .               ",
"    # 5 . 6 7 8   + 9 0 q 8               5 ; w e r t q y u t i p a . s d f g 5   8 h a             ",
". h j k h u l z . 5 t x c v b 9 * n +   a k m k 5 M O X ; * s N m h 4 B p 8       4 o w 4     8 8   ",
"4 V C Z A S j D F G g M H V g J > M K z a N L P K I B F k F   A U i v Y i +   .   T R E 9 a . W ; + ",
"h B M S 2 A 9 Q D t s v P B i X k $ ! D $ ~ S ^ / ( 9 ) Q _ K 2 _ H ` 3 k 8 + ' 8 + ; = r 9 + X ] 9 ",
"t h P [ y q h 8 5 7 { ` t l z   + W } _ R ` | ' a W + h +  .] % o [ + h 4 . z ..K   a d m X.[ l o.O.",
"+.[ s @.% . .         & @ X.9 { N ) #.s c ` 2 . 5 j , ` { % 7 8 $.      { . z ] %.[ ~ c &.B p * E *.",
". {   5     2 +       a @.$ 2 i c ' N V R =.-.  ` _ ;.:.B >.9 a &   8 q k z a p O K k @ ~ ,.i i >.` ",
"          8 l k 8   a 9 %.A W ,.v 7 @.$ <.1.j % 2.5 D o 3.J o.4.4.8 a t x k  .5.P #.W { # i ; { 4 8 ",
"  + * <.N 5 6.0 [ 8 s 0 ;.W a ) x v 5   [ N 7.D N 7 o 8.k N p 4.< [ { $.5.^ K 9.t     8 + .   8 8   ",
". h @ v w 2.6.~ 0.K i M J K 8 [ R q.y z k X & : 4 a % ' + & ~ y 7.r p q o P s k 2   8 ` K + & W K . ",
"  4 k d O D $ w w.e.6.X m r.i 8.B t.y.y q.S 7 $ h + . .     . a . ` $ F 3.a y. .-.. u.y ( [ F m y . ",
"    8 8 7 @ k $ | w s w i.e.,.8.D  .| c 7.Z P y _ K 8     7 % .   % s .   ` o w.J ' 5 , m 8.O.p.A . ",
"  4 N 7   . & [ =.J X O $ N [ @ Q k 2.S 5 o O >.y.p { . F k r -.$.o ;   8 @ - = a.A P q ..@.F N F   ",
". * G :.a . q ^ B e *.` v y y *  .7.k z k | w 7 u.6 N a s.O.d.O f.g.,.4.h @ e 5 4 t W q w + + z     ",
". y k 3.h s h.] [ $.j.[ 4 X F 8 + . +   ` ~ +   W E w.k $ F l 6.~ r 3 g @ $ k.q A `   8 8           ",
". s w  .o w l.B T                 + . ` @.y + a R q.f y.V X 6.z z % h e O.` $ B `     7 h   . .     ",
"    @ &.q.k k q   . .   a +     z k F w k :.F k $ w.$ F + a 5 . . . 2 + z.~ @ N   . z A J ` z ) a . ",
"    4 . } ' @ 6 F W #   A w + . ; 5.@ X v 6 l @.[ i 5   q W F & { ) & + ` [ ..y.7   W r ( i B B D 5 ",
". ' 7 . . w x x.A 8.R y o >.[ % y 9.>.a <.w.c.y a $ 8 W c c @ ; A 0 w w @ 0 v.p.J q 2.{ k 8.w _ 0 n ",
". V ,.2 % w e R F S 6.N l O., ..k A $   s j.E A     K @ d l @ A V b.n._ >.S N N a.D K s | ] * m.2 . ",
". y *.j V N @ # X K h 6...]  .@ z 2.O ~ & 7 M.- % 6 o A ..6.c ] / = v 2 P ' { ~ & : + 4 7 -.8 & .   ",
". h k &.0 q 6.O m.8 -.N.B.v $ k 2 + M %.~ V.q.J 2.g ( ; C.p.A c $ B # y 5 .       8 % + . . . F -.. ",
"    [ N z % R h.W + A , - ] V J N ' E e V A / | O F D s * m Q N 7 ; ; 5 .         4 ,.y + . z N %.7 ",
"    k d.k 5 v.2 E X i 5 y.R <.y.9 ~ % z.>.$ v i z ~ ' & 4 -.f ~ a 7 5 .       8 a + R r K + W r.0 $ ",
". ~ @ 9.l ; 6.V i.f.# X Z.8.' F 4 ~ B r.* & * A.y y N 6 4 .   8 W v 5     . 8 [ ; W :.F 5.v > u o [ ",
"W V 9 5 ^ t %._ h   ) d $ w a . 8 m.] S.$ a w Q D.%.r F.w + . ~ V ;.N .   % s A t @.s / G.>.^ y.p.~ ",
"O.; -.O H _ Z *     T A H.@ ' . 5 d v b j K O [ N ' A o M.k 4 @.x.m * & ' *.J.s @ 6.K.y.[ P # k M L.",
". z   -.' 4 z ~     . ` k P.9 + X ` # y I.A 6 y k ; F V 9 | @ u U.@ F   N 5.Y.A 6.T.V % ~ ~ + { 5 #.",
"      . & . z p % .   F k m 5   4   z @ 2 7.$ { 2.) . z B q.n.,.x.Y 9 % d R.E.l * E v T .           ",
"    4 k c q F 8.%.' . K W.0 7 .   { N 0 7 .   + 8.y + K J 3 p i.8.E i.y $ ` > 2.p Q.q 2 #           ",
"    * ; k @.l 2.e J [ O ! >.l z . n y._ K & . 8 R r 9 P W @ s v K -.  ` 5 n u !.*.c.* v m ' .       ",
"  . ~ O R t f.9 [ f v.O k ; T.y z # ; w c # # ` k.M , A 9 @ A ` & 5 w 2.@.h p E r _ ~.r ;.9 .       ",
". 7 u.+ 4 [ ^ S # 8 X ' @ h b x A 8.6 @ :.B R U.2.N G.J ^./.w h k ; 1 (.1 t @ H.! y ,. .v s .       ",
". y 8.F . 4 B ).P 4 . [ ..% * g S X.d _.k.y.k ] h.$ 8 + M 5._.; - J ; N y t V r W e.@.[ w .         ",
". y 0 9 F v t >.> 8.h y e.J q 7 w t.E.`.% # q A O.R.      * 2.P v 4 { 5 a [ C.9.u g S # 5   + 5     ",
". [ N &.9 O 8.'.8.y.u d A I.= :.2.O.A     h v ' N + . . z N 9 # + : 2 K % A X E k 2 | e.F . s y.    ",
"  8 2.V ].@.N ! o w.^.w V k 0.o H [.~ . 5 @ '.; * t ` [ A 4     {.&.z f - o f.>.` @.x.}.V 6 x b     ",
"    i _ K t $ l R K * [ @ - @ q d y * { y E q.^ V O.v *.l z 8 4 -.g + 9 e S O.1.w q 2 q.H 9 9.t     ",
"    ; 4.Y A 7 | H A a + w U b A p V m N P ) @ ] i ,.6.l ^ O O.g ` 7 k p.V a A |.O.8.6 o t 5 N F     ",
"    { * j./ v K V 5.$ K @  Xo P * - O., % z O <.6 t ; ; P t A e - R k g v 8 +   % h 5 N +   +       ",
"7 $     . W j w @ M 0.@ % k .Xc k m.' [     . . + n 3.A @ V A 5 2 ] ' 8.; +     8 W 2 . + X z       ",
"[ u W 8 + @ XX>.@ 8.V `   7 K -.a   W u ` 4 F n @ C.R * ' ` ~ F w ` 4 W > * + & W - 9 z $ u s . .   ",
"$ S E h $ ;  X| O J O.*   ` d + t v $ y E v ] oXy.g >.OX`   8 t Y l v k C.+X$ 5 y @XB 1 p.N.' . n 5 ",
") w i.E @ 6 N > c O o z % *.v.4 :.B V @ ! g t O i oXS.m E W ` v #Xo t y y F 3 i i E u i 2 4.5 -.@ w ",
"v ' z j.s   6 N w E B $ @ $Xe.: @ 4.E w ~ 5 ..R d k - A e O.u $ y 9 @ y.S s N ..h c P y r s 8 9 @ i.",
"p.D { . & . 5 O @  .%Xw w 6.X   ~ P y m # s x.N.v P C.$ . 4.; F c + z s F 8 2.4.D -.u.r q.O = Y ^ g ",
"G.M q h N -.z | y 2 {.K m &XB %   * m *Xi 2 y O.4 a { 4 q 4 8   +   8 ' + 8 k O.w.N $ ~ =.8.2 - K k ",
"    K @.w t i l ! *.q @ i.y F - h d { A ] @ =XN ~ .   $ _ 9 h 7     : ,.A 8 4 h f V t [ 8.2 5 #     ",
"    % R 8.@ 0.- $ a.R ] $ ; y j.v X % Z.^ N $ F .     y.U u *.k z . a R j K . .   ) a { F .   .     "
};
